<svg xmlns="http://www.w3.org/2000/svg" xmlns:xlink="http://www.w3.org/1999/xlink" width="58" height="58" viewBox="0 0 58 58">
  <defs>
    <filter id="Ellipse_4" x="0" y="0" width="58" height="58" filterUnits="userSpaceOnUse">
      <feOffset dy="3" input="SourceAlpha"/>
      <feGaussianBlur stdDeviation="3" result="blur"/>
      <feFlood flood-opacity="0.161"/>
      <feComposite operator="in" in2="blur"/>
      <feComposite in="SourceGraphic"/>
    </filter>
  </defs>
  <g id="Group_3" data-name="Group 3" transform="translate(-777 -463)">
    <g transform="matrix(1, 0, 0, 1, 777, 463)" filter="url(#Ellipse_4)">
      <circle id="Ellipse_4-2" data-name="Ellipse 4" cx="20" cy="20" r="20" transform="translate(9 6)" fill="#fff" opacity="0.75"/>
    </g>
    <path id="Path_1" data-name="Path 1" d="M35.519,21.177a1.685,1.685,0,0,0,0-2.358L27.3,10.488a1.629,1.629,0,0,0-2.326,0,1.685,1.685,0,0,0,0,2.358l5.417,5.487H14.643a1.666,1.666,0,0,0,0,3.332H30.39l-5.406,5.487a1.685,1.685,0,0,0,0,2.358,1.629,1.629,0,0,0,2.326,0l8.215-8.33Z" transform="translate(782 469)"/>
  </g>
</svg>
