<svg xmlns="http://www.w3.org/2000/svg" xmlns:xlink="http://www.w3.org/1999/xlink" width="58" height="58" viewBox="0 0 58 58">
  <defs>
    <filter id="Ellipse_4" x="0" y="0" width="58" height="58" filterUnits="userSpaceOnUse">
      <feOffset dy="3" input="SourceAlpha"/>
      <feGaussianBlur stdDeviation="3" result="blur"/>
      <feFlood flood-opacity="0.161"/>
      <feComposite operator="in" in2="blur"/>
      <feComposite in="SourceGraphic"/>
    </filter>
  </defs>
  <g id="Group_4" data-name="Group 4" transform="translate(9 6)">
    <g transform="matrix(1, 0, 0, 1, -9, -6)" filter="url(#Ellipse_4)">
      <circle id="Ellipse_4-2" data-name="Ellipse 4" cx="20" cy="20" r="20" transform="translate(9 6)" fill="#fff" opacity="0.75"/>
    </g>
    <path id="Path_1" data-name="Path 1" d="M13.481,21.177a1.685,1.685,0,0,1,0-2.358l8.215-8.33a1.629,1.629,0,0,1,2.326,0,1.685,1.685,0,0,1,0,2.358l-5.417,5.487H34.357a1.666,1.666,0,0,1,0,3.332H18.61l5.406,5.487a1.685,1.685,0,0,1,0,2.358,1.629,1.629,0,0,1-2.326,0l-8.215-8.33Z" transform="translate(-5)"/>
  </g>
</svg>
